<svg width="28" height="28" viewBox="0 0 28 28" fill="none" xmlns="http://www.w3.org/2000/svg">
    <path d="M20.5829 10.1667C21.3847 10.15 22.1776 10.3376 22.8869 10.712C23.528 11.0636 24.0811 11.5559 24.5045 12.152C24.9376 12.7775 25.2485 13.4795 25.4194 14.2208C25.6072 15.0168 25.6742 15.8365 25.6181 16.6525H18.1522C18.0917 17.4191 18.3309 18.1793 18.8194 18.7731C19.2681 19.189 19.8526 19.4228 20.4596 19.4343L20.6626 19.4298C21.1948 19.4432 21.7166 19.2813 22.1477 18.969C22.4984 18.7409 22.764 18.4035 22.9032 18.009H25.4098C25.1427 19.132 24.4905 20.1259 23.5666 20.8179C22.7541 21.3572 21.8062 21.6525 20.8349 21.672L20.5695 21.6704C19.8106 21.6804 19.0574 21.5377 18.3547 21.2509C17.7191 20.9858 17.149 20.5851 16.6844 20.0768C16.2214 19.5442 15.8658 18.9271 15.637 18.2595C15.3802 17.5133 15.2545 16.7283 15.2655 15.9392C15.2608 15.1634 15.3907 14.3926 15.6495 13.6611C16.3626 11.5501 18.3548 10.139 20.5829 10.1667ZM9.10131 6.32001C9.73013 6.30833 10.3581 6.3728 10.9714 6.51201C11.4878 6.62475 11.9781 6.83455 12.4162 7.13025C12.8208 7.42429 13.141 7.81959 13.3445 8.27649C13.545 8.75805 13.6566 9.27122 13.6745 9.79113L13.6757 10.0515C13.7023 10.7195 13.5317 11.3806 13.1852 11.9523C12.8206 12.4923 12.3167 12.9236 11.7269 13.2003C12.5273 13.4161 13.2245 13.9104 13.693 14.5942C14.0978 15.2464 14.3214 15.993 14.3432 16.7572L14.3429 17.0125C14.3577 17.6922 14.2172 18.3662 13.932 18.9834C13.6684 19.5217 13.2824 19.9909 12.805 20.3533C12.3134 20.7117 11.7603 20.9769 11.173 21.1357C10.564 21.3042 9.93481 21.3888 9.30291 21.3873H2.36499V6.32001H9.10131ZM8.94003 14.6797H5.50803V18.8288H8.87379C9.17258 18.8329 9.47076 18.8006 9.76179 18.7328C10.0277 18.6741 10.28 18.5649 10.5048 18.4112C10.7251 18.2576 10.9031 18.0509 11.0223 17.8102C11.1605 17.5034 11.224 17.1681 11.2076 16.832C11.2683 16.2112 11.0382 15.5973 10.5845 15.1693C10.11 14.8198 9.52845 14.6466 8.94003 14.6797ZM20.4908 12.4419C20.0997 12.427 19.7114 12.5137 19.3637 12.6934C19.0881 12.8452 18.8448 13.0493 18.6476 13.2944C18.4727 13.5242 18.3425 13.7847 18.2635 14.0624C18.1924 14.294 18.148 14.533 18.1311 14.7747H22.7554C22.7201 14.2234 22.54 13.6926 22.2351 13.2352L22.0949 13.0429C21.6722 12.6201 21.0872 12.4009 20.4908 12.4419ZM8.47251 8.90721H5.50803V12.4275H8.70099V12.4141C9.19506 12.4345 9.68142 12.2865 10.0805 11.9946C10.4681 11.6495 10.6696 11.1415 10.6239 10.6246C10.6367 10.3269 10.5774 10.0305 10.4511 9.76065C10.3439 9.54576 10.1773 9.36616 9.97107 9.24321C9.76217 9.10786 9.52747 9.01731 9.28179 8.97729C9.01523 8.92565 8.74398 8.90216 8.47251 8.90721ZM23.3295 7.32609V8.80737H17.5349V7.32609H23.3295Z" fill="currentColor"/>
</svg>
