<svg width="28" height="28" viewBox="0 0 28 28" fill="none" xmlns="http://www.w3.org/2000/svg">
    <path d="M14 2C7.37528 2 2 7.37528 2 14C2 20.6247 7.37528 26 14 26C20.6117 26 26 20.6247 26 14C26 7.37528 20.6117 2 14 2ZM21.9262 7.53145C23.3579 9.27548 24.2169 11.5011 24.243 13.9089C23.9046 13.8438 20.5206 13.154 17.1106 13.5835C17.0325 13.4143 16.9675 13.2321 16.8894 13.0499C16.6811 12.5553 16.4468 12.0477 16.2126 11.5662C19.987 10.0304 21.705 7.81779 21.9262 7.53145ZM14 3.77006C16.603 3.77006 18.9848 4.7462 20.7939 6.34707C20.6117 6.60738 19.0629 8.6768 15.4187 10.0434C13.7397 6.95878 11.8785 4.43384 11.5922 4.04338C12.3601 3.86117 13.167 3.77006 14 3.77006ZM9.63992 4.73319C9.91323 5.09761 11.7354 7.63558 13.4403 10.6551C8.65076 11.9306 4.42083 11.9046 3.96529 11.9046C4.62906 8.72886 6.77658 6.08677 9.63992 4.73319ZM3.74403 14.013C3.74403 13.9089 3.74403 13.8048 3.74403 13.7006C4.18655 13.7137 9.15836 13.7787 14.2733 12.243C14.5727 12.8156 14.846 13.4013 15.1063 13.987C14.9761 14.026 14.833 14.0651 14.7028 14.1041C9.41866 15.8091 6.60738 20.4686 6.37311 20.859C4.7462 19.0499 3.74403 16.6421 3.74403 14.013ZM14 24.256C11.6312 24.256 9.44468 23.449 7.71366 22.0954C7.89589 21.718 9.97832 17.7093 15.757 15.692C15.7831 15.679 15.7961 15.679 15.8221 15.6659C17.2668 19.4013 17.8525 22.538 18.0087 23.436C16.7722 23.9696 15.4187 24.256 14 24.256ZM19.7137 22.4989C19.6095 21.8742 19.0629 18.8807 17.7224 15.1974C20.9371 14.6898 23.7484 15.5228 24.0998 15.6399C23.6573 18.4902 22.0173 20.9501 19.7137 22.4989Z" fill="currentColor"/>
</svg>
