<svg width="28" height="28" viewBox="0 0 28 28" fill="none" xmlns="http://www.w3.org/2000/svg">
    <path d="M14 4.31896C17.1531 4.31896 17.5266 4.331 18.7719 4.38782C19.9232 4.44036 20.5484 4.63269 20.9646 4.79441C21.4775 4.98372 21.9415 5.28557 22.3224 5.67777C22.7146 6.05868 23.0164 6.52264 23.2057 7.03555C23.3675 7.45166 23.5598 8.07693 23.6123 9.22827C23.6691 10.4735 23.6812 10.847 23.6812 14.0001C23.6812 17.1533 23.6691 17.5267 23.6123 18.772C23.5598 19.9234 23.3674 20.5486 23.2057 20.9647C23.0093 21.474 22.7084 21.9365 22.3224 22.3225C21.9364 22.7085 21.4739 23.0094 20.9646 23.2059C20.5485 23.3676 19.9232 23.56 18.7719 23.6125C17.5269 23.6693 17.1534 23.6813 14 23.6813C10.8466 23.6813 10.4733 23.6693 9.22813 23.6125C8.07679 23.5599 7.45157 23.3675 7.03541 23.2059C6.5225 23.0166 6.05854 22.7147 5.67763 22.3225C5.28543 21.9416 4.98358 21.4776 4.79427 20.9647C4.63255 20.5486 4.44018 19.9234 4.38768 18.772C4.33086 17.5268 4.31882 17.1533 4.31882 14.0001C4.31882 10.847 4.33086 10.4736 4.38768 9.22827C4.44022 8.07693 4.63255 7.45171 4.79427 7.03555C4.9836 6.52262 5.28548 6.05863 5.67772 5.67772C6.05863 5.28552 6.5226 4.98367 7.0355 4.79436C7.45161 4.63265 8.07688 4.44027 9.22822 4.38777C10.4735 4.33096 10.8469 4.31891 14.0001 4.31891M14.0001 2.19121C10.793 2.19121 10.3907 2.2048 9.13138 2.26227C7.87443 2.31965 7.01605 2.51924 6.26493 2.81118C5.47699 3.10769 4.76321 3.57251 4.17336 4.17322C3.57252 4.76303 3.10757 5.47681 2.81094 6.26479C2.51924 7.01596 2.31965 7.87433 2.2625 9.13129C2.2048 10.3906 2.19121 10.7929 2.19121 14C2.19121 17.2071 2.2048 17.6094 2.2625 18.8687C2.31988 20.1257 2.51947 20.984 2.81141 21.7352C3.10793 22.5231 3.57275 23.2369 4.17346 23.8267C4.7633 24.4275 5.47708 24.8923 6.26502 25.1888C7.01619 25.4807 7.87457 25.6803 9.13147 25.7377C10.391 25.7952 10.7931 25.8088 14.0002 25.8088C17.2072 25.8088 17.6096 25.7952 18.8689 25.7377C20.1259 25.6803 20.9842 25.4807 21.7354 25.1888C22.5198 24.8854 23.2322 24.4215 23.8269 23.8267C24.4217 23.232 24.8856 22.5196 25.189 21.7352C25.4809 20.984 25.6805 20.1256 25.7379 18.8687C25.7953 17.6092 25.8089 17.2071 25.8089 14C25.8089 10.793 25.7953 10.3906 25.7379 9.13129C25.6805 7.87433 25.4809 7.01596 25.189 6.26483C24.8925 5.47689 24.4276 4.76311 23.8269 4.17327C23.2371 3.57244 22.5232 3.10752 21.7352 2.81094C20.9841 2.51924 20.1257 2.31965 18.8687 2.2625C17.6094 2.2048 17.2071 2.19121 14 2.19121H14.0001Z" fill="currentColor"/>
    <path d="M14 7.93602C12.8007 7.93602 11.6283 8.29167 10.631 8.95799C9.63382 9.6243 8.85658 10.5714 8.39762 11.6794C7.93865 12.7875 7.81856 14.0067 8.05254 15.183C8.28652 16.3593 8.86406 17.4398 9.71212 18.2879C10.5602 19.136 11.6407 19.7135 12.817 19.9475C13.9933 20.1815 15.2125 20.0614 16.3206 19.6024C17.4286 19.1434 18.3757 18.3662 19.042 17.369C19.7083 16.3718 20.064 15.1993 20.064 14C20.064 12.3917 19.4251 10.8493 18.2879 9.71212C17.1507 8.5749 15.6083 7.93602 14 7.93602V7.93602ZM14 17.9362C13.2215 17.9362 12.4605 17.7054 11.8132 17.2728C11.1659 16.8403 10.6614 16.2256 10.3634 15.5063C10.0655 14.787 9.98757 13.9956 10.1395 13.2321C10.2913 12.4685 10.6662 11.7671 11.2167 11.2166C11.7672 10.6662 12.4686 10.2913 13.2321 10.1394C13.9957 9.98752 14.7871 10.0655 15.5064 10.3634C16.2256 10.6613 16.8404 11.1658 17.2729 11.8132C17.7054 12.4605 17.9363 13.2215 17.9363 14C17.9363 15.044 17.5216 16.0452 16.7834 16.7833C16.0452 17.5215 15.044 17.9362 14 17.9362Z" fill="currentColor"/>
    <path d="M20.3036 9.11347C21.0862 9.11347 21.7206 8.47904 21.7206 7.69644C21.7206 6.91383 21.0862 6.2794 20.3036 6.2794C19.521 6.2794 18.8865 6.91383 18.8865 7.69644C18.8865 8.47904 19.521 9.11347 20.3036 9.11347Z" fill="currentColor"/>
</svg>
