<svg width="28" height="28" viewBox="0 0 28 28" fill="none" xmlns="http://www.w3.org/2000/svg">
    <path d="M23.2776 3H4.64413C3.70463 3 3 3.70714 3 4.57143V23.4286C3 24.2929 3.70463 25 4.64413 25H23.3559C24.2171 25 25 24.2929 25 23.4286V4.57143C24.9217 3.70714 24.2171 3 23.2776 3ZM8.92857 22H6V11H9V22H8.92857ZM7.5 9C6.6875 9 6 8.3125 6 7.5C6 6.6875 6.6875 6 7.5 6C8.3125 6 9 6.6875 9 7.5C9 8.3125 8.375 9 7.5 9ZM21.9231 22H18.7692V16.8188C18.7692 15.6232 18.7692 14.029 17.0769 14.029C15.3846 14.029 15.1538 15.3841 15.1538 16.7391V22H12V11.3188H15.0769V12.7536H15.1538C15.6154 11.9565 16.6154 11 18.1538 11C21.3846 11 22 13.2319 22 16.1014V22H21.9231Z" fill="currentColor"/>
</svg>
