<svg width="28" height="28" viewBox="0 0 28 28" xmlns="http://www.w3.org/2000/svg">
    <g clip-path="url(#clip0_1_15)">
        <path fill-rule="evenodd" clip-rule="evenodd" d="M19.912 2.3087C22.5762 2.70249 24.8238 4.73468 25.1707 7.31338C25.3218 8.84714 25.247 11.1516 25.2106 12.2719C25.2016 12.5506 25.1949 12.7561 25.1947 12.858C25.1947 13.0085 25.1729 14.383 25.1642 14.528C24.9306 18.2128 22.633 19.668 20.2186 20.1316C20.1926 20.1394 20.163 20.1451 20.1328 20.151C20.1251 20.1525 20.1173 20.154 20.1095 20.1556C18.5788 20.4545 16.939 20.5341 15.3833 20.5777C15.0112 20.5875 14.6403 20.5875 14.2683 20.5875C12.7214 20.5879 11.1799 20.4049 9.6762 20.0421C9.66823 20.0401 9.65988 20.0399 9.65183 20.0417C9.64378 20.0434 9.63629 20.047 9.6299 20.0523C9.62351 20.0575 9.61846 20.0641 9.61513 20.0716C9.61181 20.0791 9.6103 20.0874 9.61074 20.0956C9.65324 20.5851 9.75961 21.067 9.92713 21.5289C10.1355 22.0634 10.8632 23.3473 13.5689 23.3473C15.1411 23.3502 16.7081 23.1671 18.2373 22.8019C18.2451 22.8001 18.2532 22.8001 18.2609 22.8018C18.2687 22.8035 18.276 22.807 18.2823 22.8119C18.2886 22.8168 18.2937 22.8231 18.2972 22.8302C18.3008 22.8374 18.3027 22.8452 18.3028 22.8532V24.6617C18.3025 24.6703 18.3003 24.6786 18.2963 24.6862C18.2924 24.6937 18.2867 24.7003 18.2799 24.7054C17.8018 25.0519 17.1588 25.2556 16.5958 25.434C16.5704 25.4421 16.5451 25.4501 16.5201 25.458C16.2641 25.5388 16.0047 25.6097 15.7422 25.6707C13.3554 26.2143 10.8644 26.0829 8.54809 25.2911C6.38462 24.5319 4.17642 22.671 3.63091 20.4348C3.33959 19.224 3.13434 17.9942 3.01667 16.7544C2.89304 15.3987 2.85173 14.0406 2.81037 12.6807C2.79478 12.1685 2.7792 11.656 2.7592 11.1432C2.70792 9.83645 2.73738 8.41184 3.0134 7.12685C3.58727 4.51761 5.95258 2.69158 8.54263 2.3087C8.59586 2.30082 8.65466 2.29048 8.72352 2.27837C9.23612 2.1882 10.3061 2 13.7849 2H13.8144C17.7595 2 19.4625 2.24216 19.912 2.3087ZM21.3456 16.617V10.2106C21.3464 8.90088 21.0129 7.86094 20.3452 7.09084C19.6535 6.32181 18.749 5.92695 17.6275 5.92695C16.3303 5.92695 15.3484 6.42652 14.6937 7.42462L14.061 8.48491L13.4293 7.42462C12.7747 6.42652 11.7928 5.92695 10.4934 5.92695C9.37073 5.92695 8.4663 6.32181 7.77676 7.09084C7.10834 7.86168 6.77411 8.90159 6.77411 10.2106V16.617H9.3118V10.3993C9.3118 9.0903 9.86277 8.42273 10.9658 8.42273C12.1855 8.42273 12.7976 9.21248 12.7976 10.7724V14.1757H15.3211V10.7724C15.3211 9.21248 15.932 8.42273 17.1518 8.42273C18.2614 8.42273 18.8069 9.0903 18.8069 10.3993V16.617H21.3456Z" fill="currentColor"/>
    </g>
    <defs>
        <clipPath id="clip0_1_15">
            <rect width="24" height="24" transform="translate(2 2)"/>
        </clipPath>
    </defs>
</svg>
