<svg width="28" height="28" viewBox="0 0 28 28" fill="none" xmlns="http://www.w3.org/2000/svg">
    <path d="M10.2896 22.4221C17.8368 22.4221 21.9648 15.9419 21.9648 10.3224C21.9648 10.1383 21.9648 9.95507 21.9528 9.77267C22.7559 9.17067 23.4491 8.4253 24 7.57143C23.2511 7.91534 22.4567 8.14088 21.6432 8.24051C22.4998 7.70905 23.1409 6.87315 23.4472 5.88838C22.6417 6.38373 21.7605 6.73282 20.8416 6.9206C19.5697 5.51894 17.5486 5.17587 15.9116 6.08378C14.2747 6.99169 13.429 8.92478 13.8488 10.7991C10.5495 10.6277 7.47558 9.01266 5.392 6.35599C4.3029 8.29908 4.85919 10.7849 6.6624 12.0328C6.00939 12.0127 5.37062 11.8301 4.8 11.5005C4.8 11.5179 4.8 11.5361 4.8 11.5544C4.80053 13.5787 6.1774 15.3222 8.092 15.723C7.4879 15.8938 6.85406 15.9187 6.2392 15.796C6.77676 17.5283 8.31726 18.7151 10.0728 18.7492C8.61979 19.9327 6.82485 20.5752 4.9768 20.5732C4.65032 20.5726 4.32416 20.5521 4 20.5119C5.87651 21.7599 8.05993 22.4219 10.2896 22.4188" fill="currentColor"/>
</svg>
